# xmcd
#
# Track frame offsets:
#	150
#	16894
#	35331
#	52152
#	72425
#
# Disc length: 1194 seconds
#
# Revision: 0
# Processed by: cddbd v1.5.2PL0 Copyright (c) Steve Scherf et al.
# Submitted via: EasyCDDAExtractor 11.5.3.1
#
DISCID=3f04a805
DTITLE=Chuck Hall Band - Sampler 2006
DYEAR=2006
DGENRE=Blues
TTITLE0=Who's It Gonna Be?
TTITLE1=Who Better Than Me?
TTITLE2=Super Chicken
TTITLE3=Klangranka
TTITLE4=Ain't Gonna Lie
EXTD=
EXTT0=
EXTT1=
EXTT2=
EXTT3=
EXTT4=
PLAYORDER=
